# xmcd CD database file
#
# Track frame offsets:
#	150
#	21631
#	45626
#	65898
#	89191
#	107821
#	128735
#	150301
#	173331
#	194247
#	220061
#	240753
#	263001
#	285410
#	309190
#
# Disc length: 4431 seconds
#
# Revision: 0
# Processed by: cddbd v1.5.2PL0 Copyright (c) Steve Scherf et al.
# Submitted via: CDex 1.70beta2
#
DISCID=ce114d0f
DTITLE=Tito Rojas and Gilberto Santa Rosa - Dúo
DYEAR=2007
DGENRE=Salsa
TTITLE0=Gilberto Santa Rosa - Sombra Loca
TTITLE1=Tito Rojas - Nadie Es Eterno
TTITLE2=Gilberto Santa Rosa - Un Montón De Estrellas
TTITLE3=Tito Rojas - A Ti Volveré
TTITLE4=Gilberto Santa Rosa - Pueden Decir
TTITLE5=Tito Rojas - Definitivamente
TTITLE6=Gilberto Santa Rosa - Que Alguién Me Diga
TTITLE7=Tito Rojas - He Chocado Con La Vida
TTITLE8=Gilberto Santa Rosa - No Quiero Nada Regalao
TTITLE9=Tito Rojas - Señora De Madrugada
TTITLE10=Gilberto Santa Rosa - Yo No Te Pido
TTITLE11=Tito Rojas - Lo Que Te Queda
TTITLE12=Gilberto Santa Rosa - Sin Voluntad
TTITLE13=Tito Rojas - Siempre Seré
TTITLE14=Gilberto Santa Rosa - Vivir Sin Ella
EXTD=YEAR: 2007
EXTT0=
EXTT1=
EXTT2=
EXTT3=
EXTT4=
EXTT5=
EXTT6=
EXTT7=
EXTT8=
EXTT9=
EXTT10=
EXTT11=
EXTT12=
EXTT13=
EXTT14=
PLAYORDER=
